<svg xmlns="http://www.w3.org/2000/svg" width="625.899" height="956.733" viewBox="0 0 625.899 956.733">
  <g id="Group_491" data-name="Group 491" transform="translate(625.728 956.487) rotate(180)" opacity="0.36">
    <path id="Path_87" data-name="Path 87" d="M-42.984,29.368s81.4,143.64,282.493,118.1C464.987,118.839,561.9,284.727,506.042,398.044s-304,137.255-269.3,320.8S-30.216,985.373-30.216,985.373" transform="translate(103.631 -29.368)" fill="none" stroke="#fff" stroke-miterlimit="10" stroke-width="1"/>
    <path id="Path_88" data-name="Path 88" d="M-80.893,133.12S90.984,195.365,262,173.021s191.017,78.109,171.017,118.1c-41.5,82.991-263.339,98.953-277.7,233.016-10.8,100.778,75.012,236.208-119.7,308.028" transform="translate(80.893 32.863)" fill="none" stroke="#fff" stroke-miterlimit="10" stroke-width="1"/>
    <path id="Path_89" data-name="Path 89" d="M-27.023,175.836S148.66,153.421,117.3,252.444C81.353,365.947-3.083,364.165,76.717,507.805c28.384,51.09,36.708,256.956-119.7,215.46" transform="translate(103.631 57.179)" fill="none" stroke="#fff" stroke-miterlimit="10" stroke-width="1"/>
    <ellipse id="Ellipse_3" data-name="Ellipse 3" cx="79.002" cy="43.092" rx="79.002" ry="43.092" transform="translate(295.26 261.744)" fill="none" stroke="#fff" stroke-miterlimit="10" stroke-width="1"/>
  </g>
</svg>
