<svg xmlns="http://www.w3.org/2000/svg" width="846.231" height="1293.635" viewBox="0 0 846.231 1293.635">
  <g id="Group_491" data-name="Group 491" transform="translate(846.061 1293.389) rotate(180)" opacity="0.073">
    <path id="Path_87" data-name="Path 87" d="M-42.984,29.368S67.1,223.628,339.062,189.092C644,150.369,775.068,374.717,699.522,527.968S288.4,713.593,335.312,961.815s-361.029,360.46-361.029,360.46" transform="translate(125.003 -29.368)" fill="none" stroke="#fff" stroke-miterlimit="10" stroke-width="1"/>
    <path id="Path_88" data-name="Path 88" d="M-80.893,133.12S151.554,217.3,382.839,187.082,641.171,292.717,614.124,346.806C558.005,459.045,257.983,480.631,238.556,661.939,223.954,798.232,340,981.388,76.672,1078.518" transform="translate(80.893 91.356)" fill="none" stroke="#fff" stroke-miterlimit="10" stroke-width="1"/>
    <path id="Path_89" data-name="Path 89" d="M-21.4,176.6S216.2,146.289,173.783,280.209C125.17,433.711,10.978,431.3,118.9,625.56c38.386,69.094,49.643,347.508-161.884,291.389" transform="translate(125.003 138.527)" fill="none" stroke="#fff" stroke-miterlimit="10" stroke-width="1"/>
    <ellipse id="Ellipse_3" data-name="Ellipse 3" cx="106.843" cy="58.278" rx="106.843" ry="58.278" transform="translate(399.311 353.984)" fill="none" stroke="#fff" stroke-miterlimit="10" stroke-width="1"/>
  </g>
</svg>
