<svg id="Group_475" data-name="Group 475" xmlns="http://www.w3.org/2000/svg" xmlns:xlink="http://www.w3.org/1999/xlink" width="46.138" height="46.139" viewBox="0 0 46.138 46.139">
  <defs>
    <linearGradient id="linear-gradient" x1="1.084" y1="-0.084" x2="-0.163" y2="1.163" gradientUnits="objectBoundingBox">
      <stop offset="0" stop-color="#4eeeff"/>
      <stop offset="1" stop-color="#4e66ff"/>
    </linearGradient>
  </defs>
  <g id="Group_474" data-name="Group 474" transform="translate(11.881 11.88)">
    <path id="Path_668" data-name="Path 668" d="M302.315,166.878h-9.486a6.454,6.454,0,0,0-6.446,6.446v9.486a6.454,6.454,0,0,0,6.446,6.446h9.486a6.453,6.453,0,0,0,6.445-6.446v-9.486A6.453,6.453,0,0,0,302.315,166.878Zm4.162,15.932a4.168,4.168,0,0,1-4.162,4.162h-9.486a4.167,4.167,0,0,1-4.162-4.162v-9.486a4.167,4.167,0,0,1,4.162-4.162h9.486a4.167,4.167,0,0,1,4.162,4.162Z" transform="translate(-286.383 -166.878)" fill="#4eaeff"/>
    <path id="Path_669" data-name="Path 669" d="M299.617,174.916a5.2,5.2,0,1,0,5.2,5.2A5.2,5.2,0,0,0,299.617,174.916Zm0,8a2.807,2.807,0,1,1,2.807-2.808A2.81,2.81,0,0,1,299.617,182.92Z" transform="translate(-288.428 -168.923)" fill="#4eaeff"/>
    <path id="Path_670" data-name="Path 670" d="M308.674,171.893a1.541,1.541,0,1,0,1.541,1.542A1.541,1.541,0,0,0,308.674,171.893Z" transform="translate(-291.663 -168.154)" fill="#4eaeff"/>
  </g>
  <path id="Path_672" data-name="Path 672" d="M631.935,168.438H614.057a14.146,14.146,0,0,1-14.13-14.13V136.43a14.146,14.146,0,0,1,14.13-14.131h17.879a14.146,14.146,0,0,1,14.13,14.131v17.878A14.146,14.146,0,0,1,631.935,168.438Zm-17.879-44.425A12.431,12.431,0,0,0,601.64,136.43v17.878a12.43,12.43,0,0,0,12.417,12.416h17.879a12.43,12.43,0,0,0,12.417-12.416V136.43a12.431,12.431,0,0,0-12.417-12.417Z" transform="translate(-599.927 -122.299)" fill="url(#linear-gradient)"/>
</svg>
