<svg xmlns="http://www.w3.org/2000/svg" width="152.348" height="33.083" viewBox="0 0 152.348 33.083">
  <g id="Group_3" data-name="Group 3" transform="translate(-700.871 -454.471)">
    <g id="Group_1" data-name="Group 1" transform="translate(700.871 454.471)">
      <path id="Path_1" data-name="Path 1" d="M708.8,460.552h-7.929v-5.79h23.122v5.79H716.1v20.025h-7.3Z" transform="translate(-700.871 -454.681)" fill="#1e9bf9"/>
      <path id="Path_2" data-name="Path 2" d="M789.214,480.446a4,4,0,0,1,2.576-.92v-4.977a11.778,11.778,0,0,0-5.544,1.325,9.883,9.883,0,0,0-3.926,3.668,10.048,10.048,0,0,0,4.149,14.327,13.162,13.162,0,0,0,5.321,1.309v-5.4a5.157,5.157,0,0,1-2.131-.759,4.06,4.06,0,0,1-1.714-2.379h3.846v-3.687h-3.957A4.156,4.156,0,0,1,789.214,480.446Z" transform="translate(-758.662 -468.97)" fill="#fff"/>
      <path id="Path_3" data-name="Path 3" d="M847.354,454.5l7.007-.033.121,26.124-7.007.033Z" transform="translate(-806.65 -454.471)" fill="#fff"/>
      <path id="Path_4" data-name="Path 4" d="M893.966,527.214q-2.913,3.247-8.52,3.246c-.172,0-.342,0-.511-.008l-.025-5.374q.363.033.759.033a6.851,6.851,0,0,0,2.487-.406,7.273,7.273,0,0,0,2.12-1.325Z" transform="translate(-833.77 -504.231)" fill="#fff"/>
      <path id="Path_5" data-name="Path 5" d="M895.222,484.908q0,.075-.111,1.734h-10.4l-.017-3.687h3.96a4.173,4.173,0,0,0-1.384-2.509,3.993,3.993,0,0,0-2.593-.92l-.022-4.977a11.768,11.768,0,0,1,5.288,1.231,9.4,9.4,0,0,1,3.854,3.579A10.487,10.487,0,0,1,895.222,484.908Z" transform="translate(-833.589 -468.97)" fill="#fff"/>
      <path id="Path_6" data-name="Path 6" d="M951.886,475.809a9.275,9.275,0,0,1,3.541,3.614,11.956,11.956,0,0,1,0,10.879,9.269,9.269,0,0,1-3.541,3.614,9.832,9.832,0,0,1-4.96,1.272,7.449,7.449,0,0,1-5.568-2.1v8.924h-7.007V474.869h6.675v1.992q1.955-2.323,5.9-2.323A9.835,9.835,0,0,1,951.886,475.809Zm-3.411,12.539a5.737,5.737,0,0,0,0-6.97,4.23,4.23,0,0,0-6.048,0,5.737,5.737,0,0,0,0,6.97,4.231,4.231,0,0,0,6.048,0Z" transform="translate(-869.472 -468.961)" fill="#fff"/>
      <path id="Path_7" data-name="Path 7" d="M1043.2,479.5a9.811,9.811,0,0,0-4.021-3.651,13.583,13.583,0,0,0-11.635,0,10.239,10.239,0,0,0-4.021,14.327,10.037,10.037,0,0,0,4.04,3.687,12.487,12.487,0,0,0,5.788,1.328c.039,0,.075,0,.114,0v-5.569c-.036,0-.075,0-.114,0a3.943,3.943,0,0,1-3.023-1.273,4.981,4.981,0,0,1-1.181-3.521,4.863,4.863,0,0,1,1.181-3.468,4.277,4.277,0,0,1,6.049,0,4.861,4.861,0,0,1,1.178,3.457h7.08A9.994,9.994,0,0,0,1043.2,479.5Z" transform="translate(-932.816 -468.963)" fill="#fff"/>
      <path id="Path_8" data-name="Path 8" d="M1124.429,475.219a10.567,10.567,0,0,1,3.927-.682v6.306a14.358,14.358,0,0,0-1.586-.11,4.364,4.364,0,0,0-4.794,4.942v9.182h-7.007V474.869h6.675v2.4A6.529,6.529,0,0,1,1124.429,475.219Z" transform="translate(-999.902 -468.961)" fill="#fff"/>
      <path id="Path_9" data-name="Path 9" d="M1184.082,483.312a7.059,7.059,0,0,1-2.157.848,11.967,11.967,0,0,1-2.71.3,8.61,8.61,0,0,1-6.011-1.918,7.354,7.354,0,0,1-2.1-5.716v-6.712h-2.913v-5.237h2.913v-5.2h7.007v5.2h4.573v5.237h-4.573v6.638a2.352,2.352,0,0,0,.572,1.678,2,2,0,0,0,1.53.608,3.71,3.71,0,0,0,2.139-.627Z" transform="translate(-1038.332 -458.227)" fill="#fff"/>
      <path id="Path_10" data-name="Path 10" d="M824.319,495.881H820.09v-3.429c.044,0,.089,0,.136,0a4.049,4.049,0,0,1,2.709.923A4.173,4.173,0,0,1,824.319,495.881Z" transform="translate(-786.962 -481.896)" fill="#fff"/>
      <rect id="Rectangle_2" data-name="Rectangle 2" width="4.446" height="1.389" transform="translate(139.833 0.016)" fill="#fff"/>
      <path id="Path_11" data-name="Path 11" d="M1067.18,511.529v.011a4.979,4.979,0,0,1-1.178,3.521,3.926,3.926,0,0,1-2.912,1.27v-4.8Z" transform="translate(-962.438 -495.674)" fill="#1e9bf9"/>
      <rect id="Rectangle_3" data-name="Rectangle 3" width="7.225" height="7.225" transform="translate(107.877 25.859)" fill="#1e9bf9"/>
    </g>
    <g id="Group_2" data-name="Group 2" transform="translate(848.081 454.687)">
      <path id="Path_12" data-name="Path 12" d="M1235.443,456.505a2.435,2.435,0,0,0-.921-.92,2.692,2.692,0,0,0-2.616.007,2.481,2.481,0,0,0-.928.931,2.644,2.644,0,0,0,0,2.59,2.5,2.5,0,0,0,.924.932,2.581,2.581,0,0,0,3.533-.935,2.68,2.68,0,0,0,.007-2.606Zm-.3,2.442a2.257,2.257,0,0,1-3.067.815,2.167,2.167,0,0,1-.8-.811,2.347,2.347,0,0,1,0-2.263,2.15,2.15,0,0,1,.805-.811,2.346,2.346,0,0,1,2.277-.007,2.1,2.1,0,0,1,.794.8,2.375,2.375,0,0,1-.007,2.278Z" transform="translate(-1230.639 -455.25)" fill="#1e9bf9"/>
      <path id="Path_13" data-name="Path 13" d="M1236.92,461.212l.415.291a1.222,1.222,0,0,1-.487.437,1.5,1.5,0,0,1-.692.16,1.638,1.638,0,0,1-.793-.19,1.376,1.376,0,0,1-.546-.531,1.644,1.644,0,0,1,0-1.557,1.373,1.373,0,0,1,.546-.532,1.638,1.638,0,0,1,.793-.189,1.508,1.508,0,0,1,.692.159,1.243,1.243,0,0,1,.487.43l-.415.3a.869.869,0,0,0-.772-.392.946.946,0,0,0-.7.276,1.093,1.093,0,0,0,0,1.456.946.946,0,0,0,.7.276A.869.869,0,0,0,1236.92,461.212Z" transform="translate(-1233.514 -458.032)" fill="#1e9bf9"/>
    </g>
  </g>
</svg>
