<svg id="Group_481" data-name="Group 481" xmlns="http://www.w3.org/2000/svg" xmlns:xlink="http://www.w3.org/1999/xlink" width="46.138" height="46.139" viewBox="0 0 46.138 46.139">
  <defs>
    <linearGradient id="linear-gradient" x1="1.084" y1="-0.084" x2="-0.163" y2="1.163" gradientUnits="objectBoundingBox">
      <stop offset="0" stop-color="#4eeeff"/>
      <stop offset="1" stop-color="#4e66ff"/>
    </linearGradient>
  </defs>
  <g id="Group_480" data-name="Group 480" transform="translate(10.853 16.38)">
    <path id="logo-vk" d="M53.948,137.249c-.47-.437-.857-.7-1.01-1.119a.8.8,0,0,1-.055-.415c.022-.328.3-.754,2.162-3.216.775-1.027,1.786-2.266,1.786-3.195,0-.6-.246-.748-1.136-.748H51.654c-.355,0-.6.486-.743.9a22.377,22.377,0,0,1-1.169,2.392,8.607,8.607,0,0,1-2.184,2.861.5.5,0,0,1-.3.044.516.516,0,0,1-.339-.2c-.126-.153-.322-.42-.246-2.943.044-1.409.2-2.392-.093-2.992a1.035,1.035,0,0,0-.262-.3,5.971,5.971,0,0,0-2.621-.41,8.6,8.6,0,0,0-2.184.229,2.162,2.162,0,0,0-1.032.655c-.137.18.235.087.6.251a1.116,1.116,0,0,1,.612.508,6.338,6.338,0,0,1,.289,3.642,4.043,4.043,0,0,1-.36,1.392.492.492,0,0,1-.519.169c-.879-.268-1.562-1.42-2.25-2.769-.715-1.409-1.081-2.4-1.278-2.8a1.012,1.012,0,0,0-1-.623H32.941a.538.538,0,0,0-.541.491c0,.6,1.016,2.348,1.627,3.6a27.234,27.234,0,0,0,4.5,6.564,8.4,8.4,0,0,0,5.717,2.67,13.053,13.053,0,0,0,1.818-.082.8.8,0,0,0,.311-.137c.388-.3.317-.874.344-1.322a2.49,2.49,0,0,1,.382-1.42.759.759,0,0,1,1.016-.224,3.386,3.386,0,0,1,.939.825,13.689,13.689,0,0,0,1.709,1.758,3.182,3.182,0,0,0,.977.475,3.927,3.927,0,0,0,1.382.126c.53-.022.928-.016,1.584-.016a4.284,4.284,0,0,0,1.807-.191.721.721,0,0,0,.328-.617C56.842,140.41,56.176,139.329,53.948,137.249Z" transform="translate(-32.4 -127.9)" fill="#4eceff"/>
  </g>
  <path id="Path_671" data-name="Path 671" d="M631.935,168.438H614.057a14.146,14.146,0,0,1-14.13-14.13V136.43a14.146,14.146,0,0,1,14.13-14.131h17.879a14.146,14.146,0,0,1,14.13,14.131v17.878A14.146,14.146,0,0,1,631.935,168.438Zm-17.879-44.425A12.431,12.431,0,0,0,601.64,136.43v17.878a12.43,12.43,0,0,0,12.417,12.416h17.879a12.43,12.43,0,0,0,12.417-12.416V136.43a12.431,12.431,0,0,0-12.417-12.417Z" transform="translate(-599.927 -122.299)" fill="url(#linear-gradient)"/>
</svg>
